<?xml version="1.0" encoding="utf-8"?>
<!-- Generator: Adobe Illustrator 16.0.0, SVG Export Plug-In . SVG Version: 6.00 Build 0)  -->
<!DOCTYPE svg PUBLIC "-//W3C//DTD SVG 1.1//EN" "http://www.w3.org/Graphics/SVG/1.1/DTD/svg11.dtd">
<svg version="1.1" id="图层_1" xmlns="http://www.w3.org/2000/svg" xmlns:xlink="http://www.w3.org/1999/xlink" x="0px" y="0px"
	 width="512px" height="512px" viewBox="0 0 512 512" enable-background="new 0 0 512 512" xml:space="preserve">
<path fill="none" stroke="#000000" stroke-width="13" d="M477.47,258.575c-1.056,90.878-99.742,163.41-220.422,162.005
	C136.37,419.178,39.397,344.371,40.454,253.494c1.057-90.876,99.743-163.408,220.421-162.005
	C381.555,92.892,478.527,167.7,477.47,258.575z"/>
<g>
	<path fill="#0000FF" d="M386.477,234.32c-8.541-12.195-25.41-15.171-37.605-6.631c-12.194,8.54-15.17,25.409-6.631,37.604
		c8.539,12.195,25.41,15.17,37.605,6.631C392.039,263.383,395.014,246.512,386.477,234.32z"/>
	<path d="M397.125,226.863c-12.672-18.096-37.614-22.492-55.709-9.822c-18.096,12.67-22.495,37.613-9.823,55.709
		c12.672,18.098,37.612,22.494,55.708,9.824C405.396,269.902,409.797,244.961,397.125,226.863z M364.36,284.809
		c-19.33,0-35-15.67-35-35c0-19.33,15.67-35,35-35s35,15.67,35,35C399.36,269.139,383.69,284.809,364.36,284.809z"/>
	<path d="M364.36,214.809c-19.33,0-35,15.67-35,35c0,19.33,15.67,35,35,35s35-15.67,35-35
		C399.36,230.479,383.69,214.809,364.36,214.809z M379.846,271.924c-12.195,8.539-29.066,5.564-37.605-6.631
		c-8.539-12.195-5.563-29.064,6.631-37.604c12.195-8.54,29.064-5.564,37.605,6.631C395.014,246.512,392.039,263.383,379.846,271.924
		z"/>
</g>
<g>
	<circle fill="#0000FF" cx="158" cy="250.811" r="35"/>
	<path d="M180.118,235.324c8.537,12.193,5.563,29.064-6.632,37.604c-12.194,8.539-29.065,5.564-37.604-6.631
		s-5.564-29.064,6.631-37.604C154.708,220.153,171.577,223.128,180.118,235.324 M190.768,227.867
		c-12.673-18.096-37.616-22.492-55.709-9.822c-18.096,12.67-22.496,37.613-9.824,55.709c12.672,18.098,37.614,22.494,55.709,9.824
		C199.038,270.906,203.438,245.964,190.768,227.867L190.768,227.867z"/>
</g>
</svg>
